<svg width="77" height="80" viewBox="0 0 77 80" fill="none" xmlns="http://www.w3.org/2000/svg">
<path d="M5.31606 23.7824C-3.99969 43.5287 4.94368 67.0097 23.7769 75.0201C42.1651 82.8411 63.7231 73.5171 72.0004 55.6585C80.3918 37.5539 73.1472 14.8761 55.1472 6.04637C26.9314 -7.58863 8.51443 16.8107 8.25605 18.1634" stroke="#2F4858" stroke-width="2.5" stroke-miterlimit="10" stroke-linecap="round" stroke-linejoin="round"/>
<path d="M49.5668 29.7134C48.0765 37.1207 43.2113 53.9522 32.823 51.2785C22.4348 48.6047 28.3523 25.4616 39.3979 27.9599C50.4435 30.4581 43.9125 50.0072 46.674 50.7524C49.4355 51.4975 56.1353 46.2869 57.5441 39.0932C59.1435 30.9261 52.4299 21.4664 43.518 19.1935C33.3758 16.6068 22.0058 23.5682 18.8846 34.0964C16.1381 43.36 20.2909 53.6556 28.6151 58.5546C37.7449 63.9272 49.9736 61.6787 57.018 52.9442" stroke="#2F4858" stroke-width="2.5" stroke-miterlimit="10" stroke-linecap="round" stroke-linejoin="round"/>
</svg>
