<svg width="76" height="76" viewBox="0 0 76 76" fill="none" xmlns="http://www.w3.org/2000/svg">
<path d="M38 0C17.0498 0 0 17.0498 0 38C0 54.5738 10.6721 68.6959 25.4954 73.8758C25.7053 74.0242 25.9561 74.1164 26.2223 74.1215C29.9281 75.3346 33.8898 76 38 76C58.9502 76 76 58.9502 76 38C76 17.0498 58.9502 0 38 0ZM38 2.62069C57.5067 2.62069 73.3793 18.4933 73.3793 38C73.3793 53.2788 63.6439 66.3209 50.0541 71.2654C49.9108 70.8405 49.7931 70.2109 49.7931 69.781V62.8966C49.7931 60.153 48.452 57.1638 47.1315 55.1573C54.4049 53.9289 62.7174 50.1565 62.7174 36.0754C62.7174 32.2161 61.5094 28.8122 59.1293 25.9459C59.6514 24.226 60.2963 20.597 58.4946 16.0415C58.3513 15.6781 58.0493 15.3966 57.6756 15.2737C57.3071 15.1611 53.9442 14.2858 46.9626 18.8669C44.1218 18.135 41.1172 17.7562 38 17.746C34.8982 17.7562 31.8885 18.135 29.0579 18.8669C22.0762 14.2807 18.7031 15.156 18.3397 15.2737C17.9661 15.3966 17.6641 15.6781 17.5207 16.0415C15.7139 20.6021 16.3588 24.226 16.8912 25.9459C14.5008 28.8122 13.2928 32.2161 13.2928 36.0754C13.2928 50.0286 21.4569 53.8726 28.6689 55.1522C27.7629 56.2988 26.8109 57.7831 26.3912 59.2931C24.528 59.8101 20.7096 59.8254 18.1452 55.4337C18.0531 55.2648 15.8112 51.2826 11.3887 50.9755C10.6875 50.9806 8.90625 51.0932 8.47629 52.4547C8.00027 53.9647 9.66891 55.1113 10.3855 55.5975C10.4316 55.6282 10.5032 55.6692 10.5493 55.6948C10.6312 55.7357 12.5404 56.739 13.9634 60.3219C14.2602 61.2586 16.8656 68.3171 26.2171 67.0733C26.2223 68.1072 26.2171 68.6293 26.2069 69.0439V69.7759C26.2069 70.2007 26.0789 70.8405 25.9356 71.2551C12.3459 66.3106 2.62069 53.2686 2.62069 38C2.62069 18.4933 18.4933 2.62069 38 2.62069ZM37.6827 6.55684C32.5744 6.61315 27.5224 7.95932 23.0744 10.5032C22.4448 10.8564 22.2247 11.66 22.583 12.2845C22.8235 12.7093 23.2637 12.9499 23.7244 12.9499C23.9445 12.9499 24.1646 12.8936 24.3693 12.7759C29.7899 9.68427 36.188 8.52748 42.3763 9.52047C43.0878 9.6382 43.7584 9.15194 43.8761 8.43534C43.9887 7.71875 43.5024 7.04822 42.7909 6.9305C41.0967 6.65921 39.3871 6.53637 37.6827 6.55684ZM48.0323 8.3688C47.5256 8.38928 47.0496 8.71175 46.8653 9.21848C46.6094 9.89925 46.9523 10.6517 47.6331 10.9076C48.5647 11.2557 49.486 11.6549 50.3869 12.1053C50.5762 12.2026 50.7759 12.2487 50.9755 12.2487C51.4515 12.2487 51.9122 11.9876 52.1476 11.5269C52.4701 10.8871 52.2091 10.0937 51.5641 9.76616C50.5865 9.27478 49.5679 8.82947 48.5493 8.4507C48.3804 8.38928 48.2064 8.36369 48.0323 8.3688ZM56.3244 17.7511C57.732 21.892 56.7697 24.8914 56.4216 25.7411C56.2322 26.212 56.3295 26.7495 56.6724 27.1231C58.9399 29.6056 60.0916 32.6153 60.0916 36.0754C60.0916 49.358 52.2193 52.0248 44.5108 52.8796C43.9938 52.9359 43.5587 53.2942 43.4052 53.7907C43.2465 54.2872 43.4052 54.8297 43.7993 55.1727C44.8332 56.0582 47.1724 59.9022 47.1724 62.8966V69.781C47.1724 69.8066 47.1775 70.948 47.5512 72.0587C44.5108 72.9135 41.3117 73.3793 38 73.3793C34.6832 73.3793 31.479 72.9084 28.4335 72.0536C28.8122 70.9378 28.8225 69.7963 28.8225 69.7759L28.8276 69.0746C28.8327 68.4809 28.8429 67.6773 28.8276 65.5121C28.8225 65.1129 28.6433 64.7443 28.3362 64.4935C28.0291 64.2478 27.6247 64.1557 27.2357 64.2376C18.437 66.1571 16.5329 59.805 16.4612 59.5388C16.4459 59.4927 16.4305 59.4518 16.4151 59.4057C15.156 56.2117 13.4976 54.5841 12.5097 53.847C14.6441 54.5994 15.8367 56.6827 15.8675 56.7287C19.3327 62.6611 25.0552 62.8147 28.0496 61.4736C28.4642 61.2893 28.7508 60.9054 28.8122 60.4601C29.0784 58.5867 31.136 56.1094 32.1751 55.1983C32.5641 54.8553 32.7177 54.3128 32.559 53.8214C32.4054 53.3249 31.9755 52.9666 31.4636 52.9103C23.7756 52.035 15.9135 49.3478 15.9135 36.0754C15.9135 32.6204 17.0652 29.6056 19.3429 27.1231C19.6859 26.7495 19.7831 26.212 19.5886 25.7411C19.2406 24.8914 18.2732 21.9022 19.6756 17.7562C20.7915 17.792 23.5094 18.268 28.0854 21.375C28.4027 21.59 28.8071 21.6565 29.1756 21.5541C31.9141 20.7915 34.9698 20.382 38 20.3666C41.0404 20.382 44.0962 20.7915 46.8397 21.5541C47.2082 21.6565 47.6075 21.59 47.9248 21.375C52.5264 18.2527 55.2443 17.7869 56.3244 17.7511ZM25.3879 42.448C24.8761 42.3866 24.3591 42.622 24.0929 43.0929L22.7826 45.3605C22.4192 45.99 22.6342 46.7885 23.2586 47.1519C23.4634 47.2697 23.6886 47.326 23.9138 47.326C24.3642 47.326 24.8044 47.0905 25.045 46.6708L26.3553 44.4033C26.7188 43.7788 26.5089 42.9752 25.8793 42.6118C25.7206 42.5248 25.5568 42.4685 25.3879 42.448ZM50.6121 42.448C50.4432 42.4685 50.2742 42.5248 50.1207 42.6118C49.4911 42.9752 49.2812 43.7788 49.6447 44.4084L50.955 46.6759C51.1956 47.0956 51.6358 47.3311 52.0862 47.3311C52.3114 47.3311 52.5366 47.2697 52.7414 47.1519C53.371 46.7885 53.5808 45.99 53.2174 45.3656L51.9071 43.0981C51.6358 42.6272 51.1188 42.3866 50.6121 42.448ZM44.7974 45.0022C44.6285 44.9766 44.4494 44.9868 44.2702 45.038C43.5741 45.2223 43.1595 45.9388 43.3437 46.6401L44.0245 49.1738C44.1832 49.7573 44.7104 50.1412 45.2888 50.1412C45.4065 50.1412 45.5191 50.1258 45.6317 50.1002C46.3279 49.9108 46.7476 49.1942 46.5582 48.493L45.8825 45.9644C45.7392 45.4372 45.299 45.0738 44.7974 45.0022ZM31.2077 45.0022C30.701 45.0738 30.2608 45.4372 30.1175 45.9644L29.4418 48.4981C29.2524 49.1942 29.6721 49.9108 30.3683 50.1002C30.4809 50.1309 30.5935 50.1412 30.7112 50.1412C31.2845 50.1412 31.8168 49.7573 31.9755 49.1738L32.6562 46.6401C32.8405 45.944 32.4259 45.2223 31.7298 45.038C31.5506 44.9868 31.3766 44.9817 31.2077 45.0022ZM38 45.8621C37.2732 45.8621 36.6897 46.4456 36.6897 47.1724V49.7931C36.6897 50.5199 37.2732 51.1034 38 51.1034C38.7268 51.1034 39.3103 50.5199 39.3103 49.7931V47.1724C39.3103 46.4456 38.7268 45.8621 38 45.8621Z" fill="#2F4858"/>
</svg>
