<svg width="147" height="147" viewBox="0 0 147 147" fill="none" xmlns="http://www.w3.org/2000/svg">
<path d="M73.5 0C32.978 0 0 32.978 0 73.5C0 105.557 20.6422 132.872 49.3135 142.891C49.7194 143.178 50.2045 143.357 50.7194 143.367C57.8872 145.713 65.55 147 73.5 147C114.022 147 147 114.022 147 73.5C147 32.978 114.022 0 73.5 0ZM73.5 5.06897C111.23 5.06897 141.931 35.7699 141.931 73.5C141.931 103.052 123.101 128.278 96.8153 137.842C96.5381 137.02 96.3103 135.803 96.3103 134.971V121.655C96.3103 116.349 93.7165 110.567 91.1622 106.686C105.231 104.31 121.309 97.0133 121.309 69.7775C121.309 62.3126 118.972 55.7289 114.369 50.1847C115.378 46.8582 116.626 39.8389 113.141 31.0276C112.864 30.3247 112.28 29.7802 111.557 29.5426C110.844 29.3248 104.34 27.6318 90.8355 36.4926C85.3408 35.0768 79.5293 34.3442 73.5 34.3244C67.5004 34.3442 61.679 35.0768 56.2041 36.4926C42.7001 27.6219 36.1758 29.3149 35.4729 29.5426C34.7501 29.7802 34.166 30.3247 33.8888 31.0276C30.394 39.8488 31.6414 46.8582 32.6711 50.1847C28.0476 55.7289 25.7111 62.3126 25.7111 69.7775C25.7111 96.7658 41.5022 104.201 55.4517 106.676C53.6994 108.894 51.8579 111.765 51.0461 114.685C47.4423 115.685 40.0567 115.715 35.0966 107.22C34.9184 106.894 30.5821 99.1913 22.0282 98.5973C20.6719 98.6072 17.2266 98.825 16.3949 101.459C15.4742 104.379 18.7017 106.597 20.0878 107.537C20.1769 107.597 20.3155 107.676 20.4046 107.725C20.563 107.805 24.2558 109.745 27.0081 116.675C27.5823 118.487 32.6216 132.14 50.7095 129.734C50.7194 131.734 50.7095 132.744 50.6897 133.545V134.961C50.6897 135.783 50.4421 137.02 50.1649 137.822C23.8796 128.259 5.06897 103.033 5.06897 73.5C5.06897 35.7699 35.7699 5.06897 73.5 5.06897ZM72.8862 12.6823C63.0057 12.7912 53.234 15.395 44.6307 20.3155C43.4129 20.9986 42.9872 22.5529 43.6802 23.7608C44.1455 24.5825 44.997 25.0478 45.888 25.0478C46.3137 25.0478 46.7394 24.9389 47.1354 24.7112C57.6199 18.7314 69.9953 16.4939 81.9648 18.4146C83.3409 18.6423 84.6379 17.7018 84.8656 16.3157C85.0834 14.9297 84.1428 13.6327 82.7667 13.405C79.4897 12.8803 76.183 12.6427 72.8862 12.6823ZM92.9046 16.187C91.9245 16.2266 91.0038 16.8504 90.6474 17.8305C90.1523 19.1472 90.8157 20.6026 92.1324 21.0976C93.9343 21.7708 95.7163 22.543 97.4588 23.4143C97.8251 23.6024 98.2112 23.6915 98.5973 23.6915C99.518 23.6915 100.409 23.1866 100.864 22.2955C101.488 21.058 100.983 19.5234 99.7359 18.8898C97.8449 17.9394 95.8747 17.0781 93.9046 16.3454C93.5779 16.2266 93.2412 16.1771 92.9046 16.187ZM108.943 34.3343C111.666 42.3437 109.804 48.1453 109.131 49.7887C108.765 50.6996 108.953 51.7391 109.616 52.4618C114.002 57.2635 116.23 63.0849 116.23 69.7775C116.23 95.4688 101.003 100.627 86.0932 102.28C85.0933 102.389 84.2518 103.082 83.9547 104.042C83.6478 105.003 83.9547 106.052 84.7171 106.716C86.7169 108.428 91.2414 115.863 91.2414 121.655V134.971C91.2414 135.021 91.2513 137.228 91.974 139.377C86.0932 141.03 79.9055 141.931 73.5 141.931C67.0846 141.931 60.887 141.02 54.9963 139.367C55.7289 137.209 55.7487 135.001 55.7487 134.961L55.7586 133.605C55.7685 132.456 55.7883 130.902 55.7586 126.714C55.7487 125.942 55.4022 125.229 54.8082 124.744C54.2142 124.269 53.432 124.091 52.6796 124.249C35.661 127.962 31.978 115.675 31.8394 115.161C31.8097 115.071 31.78 114.992 31.7503 114.903C29.3149 108.725 26.1072 105.577 24.1964 104.151C28.3248 105.607 30.6316 109.636 30.691 109.725C37.3935 121.2 48.4621 121.497 54.2538 118.903C55.0557 118.546 55.6101 117.804 55.7289 116.943C56.2437 113.319 60.2237 108.527 62.2334 106.765C62.9859 106.102 63.2829 105.052 62.976 104.102C62.6789 103.142 61.8473 102.449 60.8573 102.34C45.987 100.647 30.7801 95.449 30.7801 69.7775C30.7801 63.0948 33.0077 57.2635 37.4133 52.4618C38.0766 51.7391 38.2647 50.6996 37.8885 49.7887C37.2153 48.1453 35.3442 42.3635 38.0568 34.3442C40.2151 34.4135 45.4722 35.3343 54.3231 41.3437C54.9369 41.7596 55.719 41.8883 56.4318 41.6903C61.7285 40.2151 67.639 39.4231 73.5 39.3934C79.3808 39.4231 85.2913 40.2151 90.5979 41.6903C91.3107 41.8883 92.0829 41.7596 92.6967 41.3437C101.597 35.3046 106.854 34.4036 108.943 34.3343ZM49.1056 82.1034C48.1156 81.9846 47.1156 82.44 46.6008 83.3508L44.0663 87.7367C43.3634 88.9544 43.7792 90.4989 44.9871 91.2018C45.3831 91.4295 45.8187 91.5384 46.2543 91.5384C47.1255 91.5384 47.977 91.083 48.4423 90.2711L50.9768 85.8853C51.6797 84.6775 51.2738 83.1231 50.056 82.4202C49.7491 82.2519 49.4323 82.143 49.1056 82.1034ZM97.8944 82.1034C97.5677 82.143 97.241 82.2519 96.944 82.4202C95.7262 83.1231 95.3203 84.6775 96.0232 85.8952L98.5577 90.281C99.023 91.0929 99.8745 91.5483 100.746 91.5483C101.181 91.5483 101.617 91.4295 102.013 91.2018C103.231 90.4989 103.637 88.9544 102.934 87.7466L100.399 83.3607C99.8745 82.4499 98.8745 81.9846 97.8944 82.1034ZM86.6476 87.0436C86.3209 86.9941 85.9744 87.0139 85.6279 87.1129C84.2815 87.4694 83.4795 88.8554 83.8359 90.2117L85.1527 95.1124C85.4596 96.241 86.4793 96.9836 87.5981 96.9836C87.8258 96.9836 88.0436 96.9539 88.2614 96.9044C89.6078 96.5381 90.4197 95.152 90.0533 93.7957L88.7465 88.9049C88.4693 87.8852 87.6179 87.1822 86.6476 87.0436ZM60.3623 87.0436C59.3821 87.1822 58.5307 87.8852 58.2535 88.9049L56.9467 93.8056C56.5803 95.152 57.3922 96.5381 58.7386 96.9044C58.9564 96.9638 59.1742 96.9836 59.4019 96.9836C60.5108 96.9836 61.5404 96.241 61.8473 95.1124L63.1641 90.2117C63.5205 88.8653 62.7185 87.4694 61.3721 87.1129C61.0256 87.0139 60.689 87.004 60.3623 87.0436ZM73.5 88.7069C72.0942 88.7069 70.9655 89.8355 70.9655 91.2414V96.3103C70.9655 97.7162 72.0942 98.8448 73.5 98.8448C74.9058 98.8448 76.0345 97.7162 76.0345 96.3103V91.2414C76.0345 89.8355 74.9058 88.7069 73.5 88.7069Z" fill="#2F4858"/>
</svg>
