<svg width="77" height="77" viewBox="0 0 77 77" fill="none" xmlns="http://www.w3.org/2000/svg">
<mask id="path-1-inside-1" fill="white">
<path d="M14.3882 0.779999C6.77044 0.779999 0.570068 6.98037 0.570068 14.5982V62.9618C0.570068 70.5796 6.77044 76.78 14.3882 76.78H62.7519C70.3697 76.78 76.5701 70.5796 76.5701 62.9618V14.5982C76.5701 6.98037 70.3697 0.779999 62.7519 0.779999H14.3882ZM14.3882 3.08303H20.1458V11.7194C20.1447 11.7957 20.1588 11.8714 20.1873 11.9422C20.2157 12.013 20.258 12.0775 20.3116 12.1318C20.3651 12.1861 20.429 12.2293 20.4993 12.2587C20.5697 12.2882 20.6453 12.3034 20.7216 12.3034C20.7979 12.3034 20.8734 12.2882 20.9438 12.2587C21.0142 12.2293 21.078 12.1861 21.1316 12.1318C21.1852 12.0775 21.2274 12.013 21.2559 11.9422C21.2843 11.8714 21.2984 11.7957 21.2973 11.7194V3.08303H62.7519C69.125 3.08303 74.267 8.22508 74.267 14.5982V24.9618H62.1761C62.0998 24.9607 62.0241 24.9748 61.9533 25.0033C61.8825 25.0317 61.818 25.074 61.7637 25.1275C61.7094 25.1811 61.6662 25.2449 61.6368 25.3153C61.6073 25.3857 61.5922 25.4613 61.5922 25.5376C61.5922 25.6139 61.6073 25.6894 61.6368 25.7598C61.6662 25.8302 61.7094 25.894 61.7637 25.9476C61.818 26.0012 61.8825 26.0434 61.9533 26.0719C62.0241 26.1003 62.0998 26.1144 62.1761 26.1133H74.267V62.9618C74.267 69.3349 69.125 74.477 62.7519 74.477H14.3882C8.01515 74.477 2.8731 69.3349 2.8731 62.9618V26.1133H6.38612C6.65489 27.4231 7.82027 28.4164 9.20643 28.4164H18.4186C19.8047 28.4164 20.9701 27.4231 21.2389 26.1133H25.1949C22.0734 29.4087 20.1458 33.8467 20.1458 38.7395C20.1458 45.8399 24.1751 52.0075 30.0754 55.0676C32.6064 56.3801 35.4837 57.121 38.5296 57.121C48.6747 57.121 56.9111 48.8847 56.9111 38.7395C56.9111 33.8471 54.9831 29.4089 51.862 26.1133H58.7216C58.7979 26.1144 58.8736 26.1003 58.9444 26.0719C59.0152 26.0434 59.0797 26.0012 59.134 25.9476C59.1883 25.894 59.2315 25.8302 59.2609 25.7598C59.2904 25.6894 59.3055 25.6139 59.3055 25.5376C59.3055 25.4613 59.2904 25.3857 59.2609 25.3153C59.2315 25.2449 59.1883 25.1811 59.134 25.1275C59.0797 25.074 59.0152 25.0317 58.9444 25.0033C58.8736 24.9748 58.7979 24.9607 58.7216 24.9618H50.6655C47.4256 22.1045 43.1851 20.3558 38.5296 20.3558C33.8743 20.3558 29.6341 22.1048 26.3937 24.9618H21.2973V20.9315C21.2985 20.8544 21.2842 20.7778 21.2553 20.7063C21.2263 20.6348 21.1833 20.5699 21.1288 20.5153C21.0742 20.4608 21.0093 20.4178 20.9378 20.3888C20.8663 20.3599 20.7897 20.3456 20.7126 20.3468C20.637 20.3479 20.5623 20.364 20.4929 20.394C20.4235 20.4241 20.3607 20.4675 20.3081 20.5218C20.2555 20.5761 20.214 20.6402 20.1862 20.7105C20.1584 20.7808 20.1446 20.8559 20.1458 20.9315V23.2525C19.6625 22.8854 19.0687 22.6588 18.4186 22.6588H17.8428V5.96182C17.844 5.88469 17.8297 5.80811 17.8007 5.73662C17.7718 5.66513 17.7288 5.60019 17.6742 5.54565C17.6197 5.4911 17.5547 5.44808 17.4832 5.41912C17.4117 5.39016 17.3352 5.37586 17.258 5.37706C17.1824 5.37824 17.1078 5.39431 17.0384 5.42433C16.969 5.45436 16.9062 5.49776 16.8536 5.55206C16.8009 5.60636 16.7595 5.67049 16.7317 5.7408C16.7038 5.8111 16.6901 5.88621 16.6913 5.96182V22.6588H14.3882V14.0224C14.3895 13.9453 14.3752 13.8687 14.3462 13.7972C14.3172 13.7257 14.2742 13.6608 14.2197 13.6063C14.1651 13.5517 14.1002 13.5087 14.0287 13.4797C13.9572 13.4508 13.8806 13.4365 13.8035 13.4377C13.7279 13.4388 13.6532 13.4549 13.5838 13.4849C13.5144 13.515 13.4516 13.5584 13.399 13.6127C13.3464 13.667 13.305 13.7311 13.2771 13.8014C13.2493 13.8717 13.2356 13.9468 13.2367 14.0224V22.6588H10.9337V20.9315C10.9349 20.8544 10.9206 20.7778 10.8917 20.7063C10.8627 20.6348 10.8197 20.5699 10.7651 20.5153C10.7106 20.4608 10.6456 20.4178 10.5741 20.3888C10.5027 20.3599 10.4261 20.3456 10.349 20.3468C10.2733 20.3479 10.1987 20.364 10.1293 20.394C10.0599 20.4241 9.99709 20.4675 9.94446 20.5218C9.89183 20.5761 9.85041 20.6402 9.82257 20.7105C9.79473 20.7808 9.78101 20.8559 9.78219 20.9315V22.6588H9.20643C7.82027 22.6588 6.65489 23.6521 6.38612 24.9618H2.8731V14.5982C2.8731 11.3691 4.1963 8.45944 6.32764 6.37114V19.78C6.32656 19.8563 6.34066 19.932 6.36911 20.0028C6.39756 20.0736 6.4398 20.1381 6.49337 20.1924C6.54694 20.2467 6.61078 20.2899 6.68117 20.3193C6.75156 20.3488 6.8271 20.364 6.9034 20.364C6.9797 20.364 7.05525 20.3488 7.12564 20.3193C7.19603 20.2899 7.25986 20.2467 7.31343 20.1924C7.367 20.1381 7.40924 20.0736 7.43769 20.0028C7.46614 19.932 7.48024 19.8563 7.47916 19.78V5.39281C8.18899 4.85976 8.95777 4.40257 9.78219 4.04337V17.477C9.78111 17.5533 9.79521 17.629 9.82366 17.6998C9.85211 17.7706 9.89435 17.835 9.94792 17.8894C10.0015 17.9437 10.0653 17.9869 10.1357 18.0163C10.2061 18.0458 10.2816 18.0609 10.3579 18.0609C10.4342 18.0609 10.5098 18.0458 10.5802 18.0163C10.6506 17.9869 10.7144 17.9437 10.768 17.8894C10.8215 17.835 10.8638 17.7706 10.8922 17.6998C10.9207 17.629 10.9348 17.5533 10.9337 17.477V3.60931C11.6714 3.37863 12.4427 3.21771 13.2367 3.13926V10.5679C13.2357 10.6442 13.2498 10.7199 13.2782 10.7907C13.3067 10.8615 13.3489 10.926 13.4025 10.9803C13.456 11.0346 13.5199 11.0778 13.5903 11.1072C13.6606 11.1367 13.7362 11.1518 13.8125 11.1518C13.8888 11.1518 13.9643 11.1367 14.0347 11.1072C14.1051 11.0778 14.169 11.0346 14.2225 10.9803C14.2761 10.926 14.3183 10.8615 14.3468 10.7907C14.3752 10.7199 14.3893 10.6442 14.3882 10.5679V3.08303ZM57.5701 8.8406C57.4174 8.84062 57.2709 8.90129 57.163 9.00926C57.055 9.11723 56.9943 9.26367 56.9943 9.41636V18.6285C56.9943 18.7812 57.055 18.9276 57.163 19.0356C57.2709 19.1436 57.4174 19.2042 57.5701 19.2042H66.7822C66.9349 19.2042 67.0813 19.1436 67.1893 19.0356C67.2973 18.9276 67.3579 18.7812 67.3579 18.6285V9.41636C67.3579 9.26367 67.2973 9.11723 67.1893 9.00926C67.0813 8.90129 66.9349 8.84062 66.7822 8.8406H57.5701ZM58.1458 9.99212H66.2064V18.0527H58.1458V9.99212ZM20.7126 14.5892C20.637 14.5904 20.5623 14.6064 20.4929 14.6365C20.4235 14.6665 20.3607 14.7099 20.3081 14.7642C20.2555 14.8185 20.214 14.8826 20.1862 14.9529C20.1584 15.0232 20.1446 15.0983 20.1458 15.1739V17.477C20.1447 17.5533 20.1588 17.629 20.1873 17.6998C20.2157 17.7706 20.258 17.835 20.3116 17.8894C20.3651 17.9437 20.429 17.9869 20.4993 18.0163C20.5697 18.0458 20.6453 18.0609 20.7216 18.0609C20.7979 18.0609 20.8734 18.0458 20.9438 18.0163C21.0142 17.9869 21.078 17.9437 21.1316 17.8894C21.1852 17.835 21.2274 17.7706 21.2559 17.6998C21.2843 17.629 21.2984 17.5533 21.2973 17.477V15.1739C21.2985 15.0968 21.2842 15.0202 21.2553 14.9487C21.2263 14.8773 21.1833 14.8123 21.1288 14.7578C21.0742 14.7032 21.0093 14.6602 20.9378 14.6312C20.8663 14.6023 20.7897 14.588 20.7126 14.5892V14.5892ZM38.5296 21.5073C48.0535 21.5073 55.7596 29.2167 55.7596 38.7395C55.7596 48.2622 48.0523 55.9695 38.5296 55.9695C35.6705 55.9695 32.9784 55.2744 30.6062 54.0443C25.0766 51.1765 21.2973 45.4044 21.2973 38.7395C21.2973 29.2155 29.0056 21.5073 38.5296 21.5073ZM9.20643 23.8103H10.2657C10.3275 23.8205 10.3906 23.8205 10.4524 23.8103H13.7203C13.7821 23.8205 13.8451 23.8205 13.907 23.8103H17.1748C17.2366 23.8205 17.2997 23.8205 17.3615 23.8103H18.4186C19.3609 23.8103 20.1115 24.5469 20.1413 25.4813C20.1377 25.5187 20.1377 25.5564 20.1413 25.5938C20.1115 26.5282 19.3609 27.2648 18.4186 27.2648H9.20643C8.26413 27.2648 7.51345 26.5282 7.48366 25.5938C7.48733 25.5564 7.48733 25.5187 7.48366 25.4813C7.51345 24.5469 8.26413 23.8103 9.20643 23.8103ZM38.5701 26.1133C31.5813 26.1133 25.9034 31.7912 25.9034 38.78C25.9034 45.7688 31.5813 51.4467 38.5701 51.4467C38.6464 51.4477 38.7221 51.4336 38.7929 51.4052C38.8637 51.3767 38.9281 51.3345 38.9825 51.2809C39.0368 51.2274 39.08 51.1635 39.1094 51.0931C39.1389 51.0228 39.154 50.9472 39.154 50.8709C39.154 50.7946 39.1389 50.7191 39.1094 50.6487C39.08 50.5783 39.0368 50.5144 38.9825 50.4609C38.9281 50.4073 38.8637 50.3651 38.7929 50.3366C38.7221 50.3082 38.6464 50.2941 38.5701 50.2951C32.2036 50.2951 27.0549 45.1465 27.0549 38.78C27.0549 36.889 27.5179 35.1106 28.3234 33.5375C28.4858 35.0944 29.4244 36.4271 30.7546 37.1179C31.3828 37.4433 32.0974 37.6285 32.853 37.6285C35.367 37.6285 37.4186 35.577 37.4186 33.0629C37.4186 30.7029 35.604 28.7747 33.3028 28.5446C34.8818 27.7313 36.6694 27.2648 38.5701 27.2648C43.584 27.2648 47.841 30.4644 49.4262 34.9274C49.4498 35.0009 49.4879 35.069 49.5382 35.1275C49.5886 35.1861 49.6502 35.2339 49.7195 35.2681C49.7887 35.3023 49.8641 35.3223 49.9412 35.3268C50.0183 35.3313 50.0955 35.3202 50.1682 35.2942C50.2409 35.2683 50.3077 35.228 50.3645 35.1757C50.4214 35.1234 50.4671 35.0602 50.499 34.9899C50.5309 34.9196 50.5484 34.8436 50.5503 34.7664C50.5523 34.6892 50.5386 34.6124 50.5103 34.5405C48.7653 29.6279 44.074 26.1133 38.5701 26.1133ZM32.853 29.6511C34.7446 29.6511 36.267 31.1713 36.267 33.0629C36.267 34.9545 34.7446 36.477 32.853 36.477C32.2843 36.477 31.7557 36.3404 31.2854 36.0969C30.1911 35.5286 29.4412 34.3869 29.4412 33.0629C29.4412 31.1713 30.9613 29.6511 32.853 29.6511ZM50.5035 36.4702C50.4232 36.4749 50.3447 36.4963 50.2731 36.5332C50.2016 36.5701 50.1386 36.6215 50.0881 36.6843C50.0377 36.747 50.001 36.8196 49.9803 36.8974C49.9597 36.9752 49.9556 37.0565 49.9683 37.1359C50.0199 37.4972 50.0542 37.8626 50.0717 38.2335C50.0792 38.3861 50.1471 38.5296 50.2603 38.6322C50.3735 38.7349 50.5229 38.7884 50.6756 38.7809C50.8283 38.7735 50.9717 38.7057 51.0744 38.5925C51.1771 38.4793 51.2306 38.3299 51.2232 38.1773C51.2039 37.7697 51.1652 37.3682 51.1085 36.9718C51.09 36.8271 51.0172 36.6948 50.9049 36.6017C50.7926 36.5086 50.6492 36.4616 50.5035 36.4702V36.4702Z"/>
</mask>
<path d="M14.3882 0.779999C6.77044 0.779999 0.570068 6.98037 0.570068 14.5982V62.9618C0.570068 70.5796 6.77044 76.78 14.3882 76.78H62.7519C70.3697 76.78 76.5701 70.5796 76.5701 62.9618V14.5982C76.5701 6.98037 70.3697 0.779999 62.7519 0.779999H14.3882ZM14.3882 3.08303H20.1458V11.7194C20.1447 11.7957 20.1588 11.8714 20.1873 11.9422C20.2157 12.013 20.258 12.0775 20.3116 12.1318C20.3651 12.1861 20.429 12.2293 20.4993 12.2587C20.5697 12.2882 20.6453 12.3034 20.7216 12.3034C20.7979 12.3034 20.8734 12.2882 20.9438 12.2587C21.0142 12.2293 21.078 12.1861 21.1316 12.1318C21.1852 12.0775 21.2274 12.013 21.2559 11.9422C21.2843 11.8714 21.2984 11.7957 21.2973 11.7194V3.08303H62.7519C69.125 3.08303 74.267 8.22508 74.267 14.5982V24.9618H62.1761C62.0998 24.9607 62.0241 24.9748 61.9533 25.0033C61.8825 25.0317 61.818 25.074 61.7637 25.1275C61.7094 25.1811 61.6662 25.2449 61.6368 25.3153C61.6073 25.3857 61.5922 25.4613 61.5922 25.5376C61.5922 25.6139 61.6073 25.6894 61.6368 25.7598C61.6662 25.8302 61.7094 25.894 61.7637 25.9476C61.818 26.0012 61.8825 26.0434 61.9533 26.0719C62.0241 26.1003 62.0998 26.1144 62.1761 26.1133H74.267V62.9618C74.267 69.3349 69.125 74.477 62.7519 74.477H14.3882C8.01515 74.477 2.8731 69.3349 2.8731 62.9618V26.1133H6.38612C6.65489 27.4231 7.82027 28.4164 9.20643 28.4164H18.4186C19.8047 28.4164 20.9701 27.4231 21.2389 26.1133H25.1949C22.0734 29.4087 20.1458 33.8467 20.1458 38.7395C20.1458 45.8399 24.1751 52.0075 30.0754 55.0676C32.6064 56.3801 35.4837 57.121 38.5296 57.121C48.6747 57.121 56.9111 48.8847 56.9111 38.7395C56.9111 33.8471 54.9831 29.4089 51.862 26.1133H58.7216C58.7979 26.1144 58.8736 26.1003 58.9444 26.0719C59.0152 26.0434 59.0797 26.0012 59.134 25.9476C59.1883 25.894 59.2315 25.8302 59.2609 25.7598C59.2904 25.6894 59.3055 25.6139 59.3055 25.5376C59.3055 25.4613 59.2904 25.3857 59.2609 25.3153C59.2315 25.2449 59.1883 25.1811 59.134 25.1275C59.0797 25.074 59.0152 25.0317 58.9444 25.0033C58.8736 24.9748 58.7979 24.9607 58.7216 24.9618H50.6655C47.4256 22.1045 43.1851 20.3558 38.5296 20.3558C33.8743 20.3558 29.6341 22.1048 26.3937 24.9618H21.2973V20.9315C21.2985 20.8544 21.2842 20.7778 21.2553 20.7063C21.2263 20.6348 21.1833 20.5699 21.1288 20.5153C21.0742 20.4608 21.0093 20.4178 20.9378 20.3888C20.8663 20.3599 20.7897 20.3456 20.7126 20.3468C20.637 20.3479 20.5623 20.364 20.4929 20.394C20.4235 20.4241 20.3607 20.4675 20.3081 20.5218C20.2555 20.5761 20.214 20.6402 20.1862 20.7105C20.1584 20.7808 20.1446 20.8559 20.1458 20.9315V23.2525C19.6625 22.8854 19.0687 22.6588 18.4186 22.6588H17.8428V5.96182C17.844 5.88469 17.8297 5.80811 17.8007 5.73662C17.7718 5.66513 17.7288 5.60019 17.6742 5.54565C17.6197 5.4911 17.5547 5.44808 17.4832 5.41912C17.4117 5.39016 17.3352 5.37586 17.258 5.37706C17.1824 5.37824 17.1078 5.39431 17.0384 5.42433C16.969 5.45436 16.9062 5.49776 16.8536 5.55206C16.8009 5.60636 16.7595 5.67049 16.7317 5.7408C16.7038 5.8111 16.6901 5.88621 16.6913 5.96182V22.6588H14.3882V14.0224C14.3895 13.9453 14.3752 13.8687 14.3462 13.7972C14.3172 13.7257 14.2742 13.6608 14.2197 13.6063C14.1651 13.5517 14.1002 13.5087 14.0287 13.4797C13.9572 13.4508 13.8806 13.4365 13.8035 13.4377C13.7279 13.4388 13.6532 13.4549 13.5838 13.4849C13.5144 13.515 13.4516 13.5584 13.399 13.6127C13.3464 13.667 13.305 13.7311 13.2771 13.8014C13.2493 13.8717 13.2356 13.9468 13.2367 14.0224V22.6588H10.9337V20.9315C10.9349 20.8544 10.9206 20.7778 10.8917 20.7063C10.8627 20.6348 10.8197 20.5699 10.7651 20.5153C10.7106 20.4608 10.6456 20.4178 10.5741 20.3888C10.5027 20.3599 10.4261 20.3456 10.349 20.3468C10.2733 20.3479 10.1987 20.364 10.1293 20.394C10.0599 20.4241 9.99709 20.4675 9.94446 20.5218C9.89183 20.5761 9.85041 20.6402 9.82257 20.7105C9.79473 20.7808 9.78101 20.8559 9.78219 20.9315V22.6588H9.20643C7.82027 22.6588 6.65489 23.6521 6.38612 24.9618H2.8731V14.5982C2.8731 11.3691 4.1963 8.45944 6.32764 6.37114V19.78C6.32656 19.8563 6.34066 19.932 6.36911 20.0028C6.39756 20.0736 6.4398 20.1381 6.49337 20.1924C6.54694 20.2467 6.61078 20.2899 6.68117 20.3193C6.75156 20.3488 6.8271 20.364 6.9034 20.364C6.9797 20.364 7.05525 20.3488 7.12564 20.3193C7.19603 20.2899 7.25986 20.2467 7.31343 20.1924C7.367 20.1381 7.40924 20.0736 7.43769 20.0028C7.46614 19.932 7.48024 19.8563 7.47916 19.78V5.39281C8.18899 4.85976 8.95777 4.40257 9.78219 4.04337V17.477C9.78111 17.5533 9.79521 17.629 9.82366 17.6998C9.85211 17.7706 9.89435 17.835 9.94792 17.8894C10.0015 17.9437 10.0653 17.9869 10.1357 18.0163C10.2061 18.0458 10.2816 18.0609 10.3579 18.0609C10.4342 18.0609 10.5098 18.0458 10.5802 18.0163C10.6506 17.9869 10.7144 17.9437 10.768 17.8894C10.8215 17.835 10.8638 17.7706 10.8922 17.6998C10.9207 17.629 10.9348 17.5533 10.9337 17.477V3.60931C11.6714 3.37863 12.4427 3.21771 13.2367 3.13926V10.5679C13.2357 10.6442 13.2498 10.7199 13.2782 10.7907C13.3067 10.8615 13.3489 10.926 13.4025 10.9803C13.456 11.0346 13.5199 11.0778 13.5903 11.1072C13.6606 11.1367 13.7362 11.1518 13.8125 11.1518C13.8888 11.1518 13.9643 11.1367 14.0347 11.1072C14.1051 11.0778 14.169 11.0346 14.2225 10.9803C14.2761 10.926 14.3183 10.8615 14.3468 10.7907C14.3752 10.7199 14.3893 10.6442 14.3882 10.5679V3.08303ZM57.5701 8.8406C57.4174 8.84062 57.2709 8.90129 57.163 9.00926C57.055 9.11723 56.9943 9.26367 56.9943 9.41636V18.6285C56.9943 18.7812 57.055 18.9276 57.163 19.0356C57.2709 19.1436 57.4174 19.2042 57.5701 19.2042H66.7822C66.9349 19.2042 67.0813 19.1436 67.1893 19.0356C67.2973 18.9276 67.3579 18.7812 67.3579 18.6285V9.41636C67.3579 9.26367 67.2973 9.11723 67.1893 9.00926C67.0813 8.90129 66.9349 8.84062 66.7822 8.8406H57.5701ZM58.1458 9.99212H66.2064V18.0527H58.1458V9.99212ZM20.7126 14.5892C20.637 14.5904 20.5623 14.6064 20.4929 14.6365C20.4235 14.6665 20.3607 14.7099 20.3081 14.7642C20.2555 14.8185 20.214 14.8826 20.1862 14.9529C20.1584 15.0232 20.1446 15.0983 20.1458 15.1739V17.477C20.1447 17.5533 20.1588 17.629 20.1873 17.6998C20.2157 17.7706 20.258 17.835 20.3116 17.8894C20.3651 17.9437 20.429 17.9869 20.4993 18.0163C20.5697 18.0458 20.6453 18.0609 20.7216 18.0609C20.7979 18.0609 20.8734 18.0458 20.9438 18.0163C21.0142 17.9869 21.078 17.9437 21.1316 17.8894C21.1852 17.835 21.2274 17.7706 21.2559 17.6998C21.2843 17.629 21.2984 17.5533 21.2973 17.477V15.1739C21.2985 15.0968 21.2842 15.0202 21.2553 14.9487C21.2263 14.8773 21.1833 14.8123 21.1288 14.7578C21.0742 14.7032 21.0093 14.6602 20.9378 14.6312C20.8663 14.6023 20.7897 14.588 20.7126 14.5892V14.5892ZM38.5296 21.5073C48.0535 21.5073 55.7596 29.2167 55.7596 38.7395C55.7596 48.2622 48.0523 55.9695 38.5296 55.9695C35.6705 55.9695 32.9784 55.2744 30.6062 54.0443C25.0766 51.1765 21.2973 45.4044 21.2973 38.7395C21.2973 29.2155 29.0056 21.5073 38.5296 21.5073ZM9.20643 23.8103H10.2657C10.3275 23.8205 10.3906 23.8205 10.4524 23.8103H13.7203C13.7821 23.8205 13.8451 23.8205 13.907 23.8103H17.1748C17.2366 23.8205 17.2997 23.8205 17.3615 23.8103H18.4186C19.3609 23.8103 20.1115 24.5469 20.1413 25.4813C20.1377 25.5187 20.1377 25.5564 20.1413 25.5938C20.1115 26.5282 19.3609 27.2648 18.4186 27.2648H9.20643C8.26413 27.2648 7.51345 26.5282 7.48366 25.5938C7.48733 25.5564 7.48733 25.5187 7.48366 25.4813C7.51345 24.5469 8.26413 23.8103 9.20643 23.8103ZM38.5701 26.1133C31.5813 26.1133 25.9034 31.7912 25.9034 38.78C25.9034 45.7688 31.5813 51.4467 38.5701 51.4467C38.6464 51.4477 38.7221 51.4336 38.7929 51.4052C38.8637 51.3767 38.9281 51.3345 38.9825 51.2809C39.0368 51.2274 39.08 51.1635 39.1094 51.0931C39.1389 51.0228 39.154 50.9472 39.154 50.8709C39.154 50.7946 39.1389 50.7191 39.1094 50.6487C39.08 50.5783 39.0368 50.5144 38.9825 50.4609C38.9281 50.4073 38.8637 50.3651 38.7929 50.3366C38.7221 50.3082 38.6464 50.2941 38.5701 50.2951C32.2036 50.2951 27.0549 45.1465 27.0549 38.78C27.0549 36.889 27.5179 35.1106 28.3234 33.5375C28.4858 35.0944 29.4244 36.4271 30.7546 37.1179C31.3828 37.4433 32.0974 37.6285 32.853 37.6285C35.367 37.6285 37.4186 35.577 37.4186 33.0629C37.4186 30.7029 35.604 28.7747 33.3028 28.5446C34.8818 27.7313 36.6694 27.2648 38.5701 27.2648C43.584 27.2648 47.841 30.4644 49.4262 34.9274C49.4498 35.0009 49.4879 35.069 49.5382 35.1275C49.5886 35.1861 49.6502 35.2339 49.7195 35.2681C49.7887 35.3023 49.8641 35.3223 49.9412 35.3268C50.0183 35.3313 50.0955 35.3202 50.1682 35.2942C50.2409 35.2683 50.3077 35.228 50.3645 35.1757C50.4214 35.1234 50.4671 35.0602 50.499 34.9899C50.5309 34.9196 50.5484 34.8436 50.5503 34.7664C50.5523 34.6892 50.5386 34.6124 50.5103 34.5405C48.7653 29.6279 44.074 26.1133 38.5701 26.1133ZM32.853 29.6511C34.7446 29.6511 36.267 31.1713 36.267 33.0629C36.267 34.9545 34.7446 36.477 32.853 36.477C32.2843 36.477 31.7557 36.3404 31.2854 36.0969C30.1911 35.5286 29.4412 34.3869 29.4412 33.0629C29.4412 31.1713 30.9613 29.6511 32.853 29.6511ZM50.5035 36.4702C50.4232 36.4749 50.3447 36.4963 50.2731 36.5332C50.2016 36.5701 50.1386 36.6215 50.0881 36.6843C50.0377 36.747 50.001 36.8196 49.9803 36.8974C49.9597 36.9752 49.9556 37.0565 49.9683 37.1359C50.0199 37.4972 50.0542 37.8626 50.0717 38.2335C50.0792 38.3861 50.1471 38.5296 50.2603 38.6322C50.3735 38.7349 50.5229 38.7884 50.6756 38.7809C50.8283 38.7735 50.9717 38.7057 51.0744 38.5925C51.1771 38.4793 51.2306 38.3299 51.2232 38.1773C51.2039 37.7697 51.1652 37.3682 51.1085 36.9718C51.09 36.8271 51.0172 36.6948 50.9049 36.6017C50.7926 36.5086 50.6492 36.4616 50.5035 36.4702V36.4702Z" fill="#2F4858" stroke="#2F4858" stroke-width="2" mask="url(#path-1-inside-1)"/>
</svg>
