<svg width="119" height="121" viewBox="0 0 119 121" fill="none" xmlns="http://www.w3.org/2000/svg">
<path d="M34.8701 21.78C26.9866 21.78 20.5701 28.1966 20.5701 36.08V86.13C20.5701 94.0134 26.9866 100.43 34.8701 100.43H84.9201C92.8035 100.43 99.2201 94.0134 99.2201 86.13V36.08C99.2201 28.1966 92.8035 21.78 84.9201 21.78H34.8701ZM34.8701 24.1633H40.8284V33.1008C40.8273 33.1798 40.8419 33.2582 40.8713 33.3314C40.9008 33.4047 40.9445 33.4714 40.9999 33.5276C41.0553 33.5839 41.1214 33.6285 41.1943 33.659C41.2671 33.6895 41.3453 33.7052 41.4242 33.7052C41.5032 33.7052 41.5814 33.6895 41.6542 33.659C41.7271 33.6285 41.7931 33.5839 41.8486 33.5276C41.904 33.4714 41.9477 33.4047 41.9772 33.3314C42.0066 33.2582 42.0212 33.1798 42.0201 33.1008V24.1633H84.9201C91.5154 24.1633 96.8367 29.4847 96.8367 36.08V46.805H84.3242C84.2453 46.8039 84.1669 46.8185 84.0936 46.8479C84.0204 46.8774 83.9537 46.9211 83.8974 46.9765C83.8412 47.0319 83.7966 47.098 83.7661 47.1708C83.7356 47.2437 83.7199 47.3219 83.7199 47.4008C83.7199 47.4798 83.7356 47.558 83.7661 47.6308C83.7966 47.7037 83.8412 47.7697 83.8974 47.8252C83.9537 47.8806 84.0204 47.9243 84.0936 47.9538C84.1669 47.9832 84.2453 47.9978 84.3242 47.9967H96.8367V86.13C96.8367 92.7253 91.5154 98.0467 84.9201 98.0467H34.8701C28.2747 98.0467 22.9534 92.7253 22.9534 86.13V47.9967H26.5889C26.8671 49.3521 28.0731 50.38 29.5076 50.38H39.0409C40.4754 50.38 41.6814 49.3521 41.9596 47.9967H46.0536C42.8232 51.407 40.8284 55.9997 40.8284 61.0631C40.8284 68.4111 44.9981 74.7937 51.1042 77.9606C53.7234 79.3188 56.7011 80.0856 59.8532 80.0856C70.3521 80.0856 78.8756 71.562 78.8756 61.0631C78.8756 56.0001 76.8804 51.4071 73.6504 47.9967H80.7492C80.8282 47.9978 80.9066 47.9832 80.9798 47.9538C81.0531 47.9243 81.1198 47.8806 81.176 47.8252C81.2323 47.7697 81.2769 47.7037 81.3074 47.6308C81.3379 47.558 81.3536 47.4798 81.3536 47.4008C81.3536 47.3219 81.3379 47.2437 81.3074 47.1708C81.2769 47.098 81.2323 47.0319 81.176 46.9765C81.1198 46.9211 81.0531 46.8774 80.9798 46.8479C80.9066 46.8185 80.8282 46.8039 80.7492 46.805H72.4122C69.0593 43.848 64.671 42.0383 59.8532 42.0383C55.0356 42.0383 50.6475 43.8484 47.2941 46.805H42.0201V42.6342C42.0213 42.5544 42.0065 42.4751 41.9765 42.4011C41.9466 42.3271 41.9021 42.2599 41.8456 42.2035C41.7892 42.147 41.722 42.1025 41.648 42.0725C41.574 42.0426 41.4947 42.0278 41.4149 42.029C41.3367 42.0302 41.2594 42.0469 41.1876 42.0779C41.1158 42.109 41.0508 42.1539 40.9963 42.2101C40.9419 42.2663 40.899 42.3327 40.8702 42.4054C40.8414 42.4782 40.8272 42.5559 40.8284 42.6342V45.0361C40.3282 44.6562 39.7138 44.4217 39.0409 44.4217H38.4451V27.1425C38.4463 27.0627 38.4315 26.9834 38.4016 26.9095C38.3716 26.8355 38.3271 26.7683 38.2706 26.7118C38.2142 26.6554 38.147 26.6108 38.073 26.5809C37.999 26.5509 37.9197 26.5361 37.8399 26.5374C37.7617 26.5386 37.6844 26.5552 37.6126 26.5863C37.5408 26.6173 37.4758 26.6623 37.4213 26.7185C37.3669 26.7746 37.324 26.841 37.2952 26.9138C37.2664 26.9865 37.2522 27.0643 37.2534 27.1425V44.4217H34.8701V35.4842C34.8713 35.4044 34.8565 35.3251 34.8265 35.2511C34.7966 35.1771 34.7521 35.1099 34.6956 35.0535C34.6392 34.997 34.572 34.9525 34.498 34.9225C34.424 34.8926 34.3447 34.8778 34.2649 34.879C34.1867 34.8802 34.1094 34.8969 34.0376 34.9279C33.9658 34.959 33.9008 35.0039 33.8463 35.0601C33.7919 35.1163 33.749 35.1827 33.7202 35.2554C33.6914 35.3282 33.6772 35.4059 33.6784 35.4842V44.4217H31.2951V42.6342C31.2963 42.5544 31.2815 42.4751 31.2515 42.4011C31.2216 42.3271 31.1771 42.2599 31.1206 42.2035C31.0642 42.147 30.997 42.1025 30.923 42.0725C30.849 42.0426 30.7697 42.0278 30.6899 42.029C30.6117 42.0302 30.5344 42.0469 30.4626 42.0779C30.3908 42.109 30.3258 42.1539 30.2713 42.2101C30.2169 42.2663 30.174 42.3327 30.1452 42.4054C30.1164 42.4782 30.1022 42.5559 30.1034 42.6342V44.4217H29.5076C28.0731 44.4217 26.8671 45.4496 26.5889 46.805H22.9534V36.08C22.9534 32.7384 24.3227 29.7272 26.5284 27.5661V41.4425C26.5273 41.5215 26.5419 41.5998 26.5713 41.6731C26.6008 41.7464 26.6445 41.8131 26.6999 41.8693C26.7553 41.9255 26.8214 41.9702 26.8943 42.0006C26.9671 42.0311 27.0453 42.0468 27.1242 42.0468C27.2032 42.0468 27.2814 42.0311 27.3542 42.0006C27.4271 41.9702 27.4931 41.9255 27.5486 41.8693C27.604 41.8131 27.6477 41.7464 27.6772 41.6731C27.7066 41.5998 27.7212 41.5215 27.7201 41.4425V26.5536C28.4547 26.002 29.2502 25.5289 30.1034 25.1572V39.0592C30.1023 39.1381 30.1169 39.2165 30.1463 39.2898C30.1758 39.363 30.2195 39.4297 30.2749 39.486C30.3303 39.5422 30.3964 39.5868 30.4693 39.6173C30.5421 39.6478 30.6203 39.6635 30.6992 39.6635C30.7782 39.6635 30.8564 39.6478 30.9292 39.6173C31.0021 39.5868 31.0681 39.5422 31.1236 39.486C31.179 39.4297 31.2227 39.363 31.2522 39.2898C31.2816 39.2165 31.2962 39.1381 31.2951 39.0592V24.708C32.0585 24.4692 32.8567 24.3027 33.6784 24.2215V31.9092C33.6773 31.9881 33.6919 32.0665 33.7213 32.1398C33.7508 32.213 33.7945 32.2797 33.8499 32.336C33.9053 32.3922 33.9714 32.4368 34.0443 32.4673C34.1171 32.4978 34.1953 32.5135 34.2742 32.5135C34.3532 32.5135 34.4314 32.4978 34.5042 32.4673C34.5771 32.4368 34.6431 32.3922 34.6986 32.336C34.754 32.2797 34.7977 32.213 34.8272 32.1398C34.8566 32.0665 34.8712 31.9881 34.8701 31.9092V24.1633ZM79.5576 30.1217C79.3996 30.1217 79.248 30.1845 79.1363 30.2962C79.0245 30.4079 78.9618 30.5595 78.9617 30.7175V40.2508C78.9618 40.4089 79.0245 40.5604 79.1363 40.6721C79.248 40.7839 79.3996 40.8467 79.5576 40.8467H89.0909C89.2489 40.8467 89.4005 40.7839 89.5122 40.6721C89.6239 40.5604 89.6867 40.4089 89.6867 40.2508V30.7175C89.6867 30.5595 89.6239 30.4079 89.5122 30.2962C89.4005 30.1845 89.2489 30.1217 89.0909 30.1217H79.5576ZM80.1534 31.3133H88.4951V39.655H80.1534V31.3133ZM41.4149 36.0707C41.3367 36.0719 41.2594 36.0885 41.1876 36.1196C41.1158 36.1507 41.0508 36.1956 40.9963 36.2518C40.9419 36.308 40.899 36.3743 40.8702 36.4471C40.8414 36.5199 40.8272 36.5976 40.8284 36.6758V39.0592C40.8273 39.1381 40.8419 39.2165 40.8713 39.2898C40.9008 39.363 40.9445 39.4297 40.9999 39.486C41.0553 39.5422 41.1214 39.5868 41.1943 39.6173C41.2671 39.6478 41.3453 39.6635 41.4242 39.6635C41.5032 39.6635 41.5814 39.6478 41.6542 39.6173C41.7271 39.5868 41.7931 39.5422 41.8486 39.486C41.904 39.4297 41.9477 39.363 41.9772 39.2898C42.0066 39.2165 42.0212 39.1381 42.0201 39.0592V36.6758C42.0213 36.596 42.0065 36.5168 41.9765 36.4428C41.9466 36.3688 41.9021 36.3016 41.8456 36.2452C41.7892 36.1887 41.722 36.1442 41.648 36.1142C41.574 36.0842 41.4947 36.0694 41.4149 36.0707ZM59.8532 43.23C69.7092 43.23 77.684 51.2083 77.684 61.0631C77.684 70.9179 69.708 78.8939 59.8532 78.8939C56.8944 78.8939 54.1084 78.1746 51.6535 76.9016C45.9311 73.9337 42.0201 67.9603 42.0201 61.0631C42.0201 51.2071 49.9971 43.23 59.8532 43.23ZM29.5076 45.6133H30.6038C30.6678 45.6238 30.733 45.6238 30.797 45.6133H34.1788C34.2428 45.6238 34.308 45.6238 34.372 45.6133H37.7538C37.8178 45.6238 37.883 45.6238 37.947 45.6133H39.0409C40.0161 45.6133 40.7929 46.3757 40.8237 47.3426C40.82 47.3813 40.82 47.4203 40.8237 47.459C40.7929 48.426 40.0161 49.1883 39.0409 49.1883H29.5076C28.5324 49.1883 27.7556 48.426 27.7247 47.459C27.7285 47.4203 27.7285 47.3813 27.7247 47.3426C27.7556 46.3757 28.5324 45.6133 29.5076 45.6133ZM59.8951 47.9967C52.6626 47.9967 46.7867 53.8725 46.7867 61.105C46.7867 68.3375 52.6626 74.2133 59.8951 74.2133C59.974 74.2145 60.0524 74.1999 60.1257 74.1704C60.199 74.141 60.2656 74.0973 60.3219 74.0418C60.3781 73.9864 60.4227 73.9203 60.4532 73.8475C60.4837 73.7746 60.4994 73.6965 60.4994 73.6175C60.4994 73.5385 60.4837 73.4604 60.4532 73.3875C60.4227 73.3147 60.3781 73.2486 60.3219 73.1932C60.2656 73.1377 60.199 73.094 60.1257 73.0646C60.0524 73.0351 59.974 73.0205 59.8951 73.0217C53.3066 73.0217 47.9784 67.6935 47.9784 61.105C47.9784 59.148 48.4575 57.3076 49.2911 55.6797C49.4592 57.2909 50.4305 58.67 51.8071 59.385C52.4572 59.7217 53.1967 59.9133 53.9786 59.9133C56.5803 59.9133 58.7034 57.7903 58.7034 55.1886C58.7034 52.7463 56.8256 50.7508 54.4441 50.5127C56.0782 49.6711 57.9281 49.1883 59.8951 49.1883C65.0839 49.1883 69.4893 52.4994 71.1298 57.118C71.1541 57.1942 71.1935 57.2646 71.2457 57.3252C71.2978 57.3857 71.3616 57.4352 71.4332 57.4706C71.5049 57.5061 71.5829 57.5267 71.6627 57.5314C71.7425 57.536 71.8223 57.5246 71.8976 57.4977C71.9729 57.4708 72.042 57.4291 72.1008 57.375C72.1596 57.3209 72.2069 57.2555 72.24 57.1828C72.273 57.11 72.291 57.0313 72.2931 56.9514C72.2951 56.8715 72.281 56.792 72.2516 56.7177C70.4458 51.6338 65.591 47.9967 59.8951 47.9967ZM53.9786 51.6578C55.9362 51.6578 57.5117 53.231 57.5117 55.1886C57.5117 57.1462 55.9362 58.7217 53.9786 58.7217C53.3901 58.7217 52.8431 58.5803 52.3564 58.3283C51.2239 57.7402 50.4479 56.5587 50.4479 55.1886C50.4479 53.231 52.021 51.6578 53.9786 51.6578ZM72.2446 58.7147C72.1615 58.7195 72.0803 58.7417 72.0062 58.7799C71.9322 58.818 71.8669 58.8713 71.8147 58.9362C71.7625 59.0011 71.7245 59.0762 71.7032 59.1567C71.6818 59.2373 71.6776 59.3214 71.6907 59.4036C71.7441 59.7774 71.7796 60.1557 71.7978 60.5394C71.8055 60.6974 71.8757 60.8458 71.9929 60.9521C72.1101 61.0583 72.2647 61.1137 72.4227 61.106C72.5807 61.0983 72.7291 61.0281 72.8354 60.911C72.9417 60.7938 72.9971 60.6392 72.9894 60.4812C72.9695 60.0594 72.9294 59.644 72.8707 59.2337C72.8515 59.084 72.7762 58.9471 72.66 58.8508C72.5438 58.7545 72.3953 58.7058 72.2446 58.7147Z" fill="white"/>
</svg>
