<svg width="64" height="64" viewBox="0 0 64 64" fill="none" xmlns="http://www.w3.org/2000/svg">
<path d="M22.9375 10C15.8359 10 10 15.8281 10 22.9375V41.0625C10 48.1641 15.8281 54 22.9375 54H41.0625C48.1641 54 54 48.1719 54 41.0625V22.9375C54 15.8359 48.1719 10 41.0625 10H22.9375ZM22.9375 14H41.0625C46.0078 14 50 17.9922 50 22.9375V41.0625C50 46.0078 46.0078 50 41.0625 50H22.9375C17.9922 50 14 46.0078 14 41.0625V22.9375C14 17.9922 17.9922 14 22.9375 14ZM43.8125 18.375C42.8047 18.375 42 19.1797 42 20.1875C42 21.1953 42.8047 22 43.8125 22C44.8203 22 45.625 21.1953 45.625 20.1875C45.625 19.1797 44.8203 18.375 43.8125 18.375ZM32 20C25.3984 20 20 25.3984 20 32C20 38.6016 25.3984 44 32 44C38.6016 44 44 38.6016 44 32C44 25.3984 38.6016 20 32 20ZM32 24C36.4453 24 40 27.5547 40 32C40 36.4453 36.4453 40 32 40C27.5547 40 24 36.4453 24 32C24 27.5547 27.5547 24 32 24Z" fill="#303030"/>
</svg>
