<svg width="77" height="77" viewBox="0 0 77 77" fill="none" xmlns="http://www.w3.org/2000/svg">
<mask id="path-1-inside-1" fill="white">
<path d="M16.1409 0.361698C7.75987 0.361698 0.940918 7.18065 0.940918 15.5617V61.1617C0.940918 69.5427 7.75987 76.3617 16.1409 76.3617H61.7409C70.122 76.3617 76.9409 69.5427 76.9409 61.1617V15.5617C76.9409 7.17948 70.1231 0.361698 61.7409 0.361698H16.1409ZM16.1409 2.70016H61.7409C68.8323 2.70016 74.6025 8.47031 74.6025 15.5617V61.1617C74.6025 68.2531 68.8323 74.0232 61.7409 74.0232H16.1409C9.04953 74.0232 3.27938 68.2531 3.27938 61.1617V15.5617C3.27938 8.47031 9.04953 2.70016 16.1409 2.70016ZM19.4591 6.20557C12.4717 6.20557 6.78707 11.8902 6.78707 18.8776V57.8436C6.78707 64.8309 12.4717 70.5133 19.4591 70.5133H58.4251C65.4124 70.5133 71.0948 64.8309 71.0948 57.8436V36.0232C71.0948 35.6994 70.8329 35.4386 70.5101 35.4386C70.1874 35.4386 69.9255 35.7005 69.9255 36.0232V57.8436C69.9255 64.1855 64.767 69.3463 58.4251 69.3463H19.4591C13.1172 69.3463 7.9563 64.1855 7.9563 57.8436V18.8776C7.9563 12.5357 13.1172 7.3748 19.4591 7.3748H58.8178C59.1405 7.3748 59.4025 7.11289 59.4025 6.79018C59.4025 6.46748 59.1405 6.20557 58.8178 6.20557H19.4591ZM26.0999 21.4558C23.6597 21.4558 21.8889 23.1658 21.8889 25.523C21.8889 27.8802 23.6234 29.5902 26.0565 29.5902C28.4967 29.5902 30.2699 27.8805 30.2699 25.5093C30.2114 23.1229 28.4945 21.4558 26.0999 21.4558ZM26.0999 22.625C27.8783 22.625 29.0574 23.7703 29.1007 25.5253C29.1018 27.2312 27.8511 28.4232 26.0177 28.4232C24.2767 28.4232 23.0581 27.2312 23.0581 25.5253C23.0581 23.8182 24.3087 22.625 26.0999 22.625ZM70.5101 23.7463C70.1874 23.7463 69.9255 24.0071 69.9255 24.3309V26.6694C69.9255 26.9921 70.1874 27.254 70.5101 27.254C70.8329 27.254 71.0948 26.9921 71.0948 26.6694V24.3309C71.0948 24.0082 70.8329 23.7463 70.5101 23.7463ZM70.5101 28.4232C70.1874 28.4232 69.9255 28.6851 69.9255 29.0079V33.6848C69.9255 34.0075 70.1874 34.2694 70.5101 34.2694C70.8329 34.2694 71.0948 34.0075 71.0948 33.6848V29.0079C71.0948 28.684 70.8329 28.4232 70.5101 28.4232ZM48.0253 31.7871C45.453 31.8023 43.3677 32.5702 41.8617 34.1849V32.5133C41.8617 32.1906 41.5998 31.9286 41.2771 31.9286H34.1749C34.0147 31.9286 33.8612 31.9933 33.7502 32.1091C33.6403 32.2248 33.5833 32.3816 33.5903 32.5407C33.685 34.5856 33.5903 54.5253 33.5903 54.7264C33.5891 54.883 33.6506 55.0321 33.7593 55.142C33.8692 55.2519 34.0183 55.3133 34.1726 55.3133H41.2794C41.6021 55.3133 41.864 55.0514 41.864 54.7286V42.3193C41.864 41.6037 41.9327 41.0723 42.0695 40.7367C42.3536 40.0352 43.2378 38.4028 45.3237 38.4028C48.4432 38.4028 48.7812 41.5679 48.7812 42.9336L48.8771 54.7332C48.8794 55.0548 49.1413 55.3133 49.4617 55.3133H56.4771C56.7998 55.3133 57.0617 55.0514 57.0617 54.7286V42.8285C57.0617 38.935 56.1013 36.0014 54.2071 34.1095C52.6638 32.5685 50.5847 31.7871 48.0253 31.7871ZM22.5717 31.9309C22.249 31.9309 21.9871 32.1928 21.9871 32.5155V54.7309C21.9871 55.0536 22.249 55.3155 22.5717 55.3155H29.5871C29.9098 55.3155 30.1717 55.0536 30.1717 54.7309V32.5155C30.1717 32.1928 29.9098 31.9309 29.5871 31.9309H22.5717ZM48.007 32.9586H48.0253C50.2644 32.9586 52.0674 33.6255 53.3827 34.9385C55.0489 36.6023 55.8948 39.2565 55.8948 42.8285V54.1463H50.044L49.9504 42.9313C49.9504 39.4178 48.1789 37.2336 45.326 37.2336C43.3851 37.2336 41.7623 38.3784 40.9871 40.296C40.7906 40.7777 40.6948 41.4388 40.6948 42.3193V54.144H34.7618C34.777 50.9918 34.8352 36.6394 34.7732 33.1002H40.6948V35.7926C40.6293 35.9575 40.6561 36.1485 40.745 36.3087C40.8491 36.4923 41.0678 36.6079 41.2794 36.6079C41.5226 36.6079 41.7306 36.4135 41.8183 36.1808C42.6719 34.7777 44.2479 32.9586 48.007 32.9586ZM23.1563 33.1002H29.0025V54.1463H23.1563V33.1002Z"/>
</mask>
<path d="M16.1409 0.361698C7.75987 0.361698 0.940918 7.18065 0.940918 15.5617V61.1617C0.940918 69.5427 7.75987 76.3617 16.1409 76.3617H61.7409C70.122 76.3617 76.9409 69.5427 76.9409 61.1617V15.5617C76.9409 7.17948 70.1231 0.361698 61.7409 0.361698H16.1409ZM16.1409 2.70016H61.7409C68.8323 2.70016 74.6025 8.47031 74.6025 15.5617V61.1617C74.6025 68.2531 68.8323 74.0232 61.7409 74.0232H16.1409C9.04953 74.0232 3.27938 68.2531 3.27938 61.1617V15.5617C3.27938 8.47031 9.04953 2.70016 16.1409 2.70016ZM19.4591 6.20557C12.4717 6.20557 6.78707 11.8902 6.78707 18.8776V57.8436C6.78707 64.8309 12.4717 70.5133 19.4591 70.5133H58.4251C65.4124 70.5133 71.0948 64.8309 71.0948 57.8436V36.0232C71.0948 35.6994 70.8329 35.4386 70.5101 35.4386C70.1874 35.4386 69.9255 35.7005 69.9255 36.0232V57.8436C69.9255 64.1855 64.767 69.3463 58.4251 69.3463H19.4591C13.1172 69.3463 7.9563 64.1855 7.9563 57.8436V18.8776C7.9563 12.5357 13.1172 7.3748 19.4591 7.3748H58.8178C59.1405 7.3748 59.4025 7.11289 59.4025 6.79018C59.4025 6.46748 59.1405 6.20557 58.8178 6.20557H19.4591ZM26.0999 21.4558C23.6597 21.4558 21.8889 23.1658 21.8889 25.523C21.8889 27.8802 23.6234 29.5902 26.0565 29.5902C28.4967 29.5902 30.2699 27.8805 30.2699 25.5093C30.2114 23.1229 28.4945 21.4558 26.0999 21.4558ZM26.0999 22.625C27.8783 22.625 29.0574 23.7703 29.1007 25.5253C29.1018 27.2312 27.8511 28.4232 26.0177 28.4232C24.2767 28.4232 23.0581 27.2312 23.0581 25.5253C23.0581 23.8182 24.3087 22.625 26.0999 22.625ZM70.5101 23.7463C70.1874 23.7463 69.9255 24.0071 69.9255 24.3309V26.6694C69.9255 26.9921 70.1874 27.254 70.5101 27.254C70.8329 27.254 71.0948 26.9921 71.0948 26.6694V24.3309C71.0948 24.0082 70.8329 23.7463 70.5101 23.7463ZM70.5101 28.4232C70.1874 28.4232 69.9255 28.6851 69.9255 29.0079V33.6848C69.9255 34.0075 70.1874 34.2694 70.5101 34.2694C70.8329 34.2694 71.0948 34.0075 71.0948 33.6848V29.0079C71.0948 28.684 70.8329 28.4232 70.5101 28.4232ZM48.0253 31.7871C45.453 31.8023 43.3677 32.5702 41.8617 34.1849V32.5133C41.8617 32.1906 41.5998 31.9286 41.2771 31.9286H34.1749C34.0147 31.9286 33.8612 31.9933 33.7502 32.1091C33.6403 32.2248 33.5833 32.3816 33.5903 32.5407C33.685 34.5856 33.5903 54.5253 33.5903 54.7264C33.5891 54.883 33.6506 55.0321 33.7593 55.142C33.8692 55.2519 34.0183 55.3133 34.1726 55.3133H41.2794C41.6021 55.3133 41.864 55.0514 41.864 54.7286V42.3193C41.864 41.6037 41.9327 41.0723 42.0695 40.7367C42.3536 40.0352 43.2378 38.4028 45.3237 38.4028C48.4432 38.4028 48.7812 41.5679 48.7812 42.9336L48.8771 54.7332C48.8794 55.0548 49.1413 55.3133 49.4617 55.3133H56.4771C56.7998 55.3133 57.0617 55.0514 57.0617 54.7286V42.8285C57.0617 38.935 56.1013 36.0014 54.2071 34.1095C52.6638 32.5685 50.5847 31.7871 48.0253 31.7871ZM22.5717 31.9309C22.249 31.9309 21.9871 32.1928 21.9871 32.5155V54.7309C21.9871 55.0536 22.249 55.3155 22.5717 55.3155H29.5871C29.9098 55.3155 30.1717 55.0536 30.1717 54.7309V32.5155C30.1717 32.1928 29.9098 31.9309 29.5871 31.9309H22.5717ZM48.007 32.9586H48.0253C50.2644 32.9586 52.0674 33.6255 53.3827 34.9385C55.0489 36.6023 55.8948 39.2565 55.8948 42.8285V54.1463H50.044L49.9504 42.9313C49.9504 39.4178 48.1789 37.2336 45.326 37.2336C43.3851 37.2336 41.7623 38.3784 40.9871 40.296C40.7906 40.7777 40.6948 41.4388 40.6948 42.3193V54.144H34.7618C34.777 50.9918 34.8352 36.6394 34.7732 33.1002H40.6948V35.7926C40.6293 35.9575 40.6561 36.1485 40.745 36.3087C40.8491 36.4923 41.0678 36.6079 41.2794 36.6079C41.5226 36.6079 41.7306 36.4135 41.8183 36.1808C42.6719 34.7777 44.2479 32.9586 48.007 32.9586ZM23.1563 33.1002H29.0025V54.1463H23.1563V33.1002Z" fill="#2F4858" stroke="#2F4858" stroke-width="2" mask="url(#path-1-inside-1)"/>
</svg>
