<svg width="66" height="66" viewBox="0 0 66 66" fill="none" xmlns="http://www.w3.org/2000/svg">
<mask id="path-1-inside-1" fill="white">
<path d="M13.3066 0.654297C6.13864 0.654297 0.306641 6.4863 0.306641 13.6543V52.6543C0.306641 59.8223 6.13864 65.6543 13.3066 65.6543H52.3066C59.4746 65.6543 65.3066 59.8223 65.3066 52.6543V13.6543C65.3066 6.4853 59.4756 0.654297 52.3066 0.654297H13.3066ZM13.3066 2.6543H52.3066C58.3716 2.6543 63.3066 7.5893 63.3066 13.6543V52.6543C63.3066 58.7193 58.3716 63.6543 52.3066 63.6543H13.3066C7.24164 63.6543 2.30664 58.7193 2.30664 52.6543V13.6543C2.30664 7.5893 7.24164 2.6543 13.3066 2.6543ZM16.1445 5.65234C10.1685 5.65234 5.30664 10.5142 5.30664 16.4902V49.8164C5.30664 55.7924 10.1685 60.6524 16.1445 60.6524H49.4707C55.4467 60.6524 60.3066 55.7924 60.3066 49.8164V31.1543C60.3066 30.8773 60.0826 30.6543 59.8066 30.6543C59.5306 30.6543 59.3066 30.8783 59.3066 31.1543V49.8164C59.3066 55.2404 54.8947 59.6543 49.4707 59.6543H16.1445C10.7205 59.6543 6.30664 55.2404 6.30664 49.8164V16.4902C6.30664 11.0662 10.7205 6.65234 16.1445 6.65234H49.8066C50.0826 6.65234 50.3066 6.42834 50.3066 6.15234C50.3066 5.87634 50.0826 5.65234 49.8066 5.65234H16.1445ZM21.8242 18.6953C19.7372 18.6953 18.2227 20.1578 18.2227 22.1738C18.2227 24.1898 19.7061 25.6523 21.7871 25.6523C23.8741 25.6523 25.3906 24.1901 25.3906 22.1621C25.3406 20.1211 23.8722 18.6953 21.8242 18.6953ZM21.8242 19.6953C23.3452 19.6953 24.3536 20.6748 24.3906 22.1758C24.3916 23.6348 23.3219 24.6543 21.7539 24.6543C20.2649 24.6543 19.2227 23.6348 19.2227 22.1758C19.2227 20.7158 20.2922 19.6953 21.8242 19.6953ZM59.8066 20.6543C59.5306 20.6543 59.3066 20.8773 59.3066 21.1543V23.1543C59.3066 23.4303 59.5306 23.6543 59.8066 23.6543C60.0826 23.6543 60.3066 23.4303 60.3066 23.1543V21.1543C60.3066 20.8783 60.0826 20.6543 59.8066 20.6543ZM59.8066 24.6543C59.5306 24.6543 59.3066 24.8783 59.3066 25.1543V29.1543C59.3066 29.4303 59.5306 29.6543 59.8066 29.6543C60.0826 29.6543 60.3066 29.4303 60.3066 29.1543V25.1543C60.3066 24.8773 60.0826 24.6543 59.8066 24.6543ZM40.5762 27.5313C38.3762 27.5443 36.5927 28.201 35.3047 29.582V28.1523C35.3047 27.8763 35.0807 27.6523 34.8047 27.6523H28.7305C28.5935 27.6523 28.4622 27.7076 28.3672 27.8066C28.2732 27.9056 28.2245 28.0398 28.2305 28.1758C28.3115 29.9248 28.2305 46.9784 28.2305 47.1504C28.2295 47.2844 28.282 47.4119 28.375 47.5059C28.469 47.5999 28.5965 47.6524 28.7285 47.6524H34.8066C35.0826 47.6524 35.3066 47.4284 35.3066 47.1524V36.5391C35.3066 35.9271 35.3654 35.4726 35.4824 35.1856C35.7254 34.5856 36.4816 33.1895 38.2656 33.1895C40.9336 33.1895 41.2227 35.8965 41.2227 37.0645L41.3047 47.1563C41.3067 47.4313 41.5307 47.6524 41.8047 47.6524H47.8047C48.0807 47.6524 48.3047 47.4284 48.3047 47.1524V36.9746C48.3047 33.6446 47.4833 31.1356 45.8633 29.5176C44.5433 28.1996 42.7652 27.5313 40.5762 27.5313ZM18.8066 27.6543C18.5306 27.6543 18.3066 27.8783 18.3066 28.1543V47.1543C18.3066 47.4303 18.5306 47.6543 18.8066 47.6543H24.8066C25.0826 47.6543 25.3066 47.4303 25.3066 47.1543V28.1543C25.3066 27.8783 25.0826 27.6543 24.8066 27.6543H18.8066ZM40.5605 28.5332H40.5762C42.4912 28.5332 44.0332 29.1036 45.1582 30.2266C46.5832 31.6496 47.3066 33.9196 47.3066 36.9746V46.6543H42.3027L42.2227 37.0625C42.2227 34.0575 40.7076 32.1895 38.2676 32.1895C36.6076 32.1895 35.2196 33.1686 34.5566 34.8086C34.3886 35.2206 34.3066 35.7861 34.3066 36.5391V46.6523H29.2324C29.2454 43.9563 29.2952 31.6813 29.2422 28.6543H34.3066V30.957C34.2506 31.098 34.2736 31.2614 34.3496 31.3984C34.4386 31.5554 34.6256 31.6543 34.8066 31.6543C35.0146 31.6543 35.1926 31.4881 35.2676 31.2891C35.9976 30.0891 37.3455 28.5332 40.5605 28.5332ZM19.3066 28.6543H24.3066V46.6543H19.3066V28.6543Z"/>
</mask>
<path d="M13.3066 0.654297C6.13864 0.654297 0.306641 6.4863 0.306641 13.6543V52.6543C0.306641 59.8223 6.13864 65.6543 13.3066 65.6543H52.3066C59.4746 65.6543 65.3066 59.8223 65.3066 52.6543V13.6543C65.3066 6.4853 59.4756 0.654297 52.3066 0.654297H13.3066ZM13.3066 2.6543H52.3066C58.3716 2.6543 63.3066 7.5893 63.3066 13.6543V52.6543C63.3066 58.7193 58.3716 63.6543 52.3066 63.6543H13.3066C7.24164 63.6543 2.30664 58.7193 2.30664 52.6543V13.6543C2.30664 7.5893 7.24164 2.6543 13.3066 2.6543ZM16.1445 5.65234C10.1685 5.65234 5.30664 10.5142 5.30664 16.4902V49.8164C5.30664 55.7924 10.1685 60.6524 16.1445 60.6524H49.4707C55.4467 60.6524 60.3066 55.7924 60.3066 49.8164V31.1543C60.3066 30.8773 60.0826 30.6543 59.8066 30.6543C59.5306 30.6543 59.3066 30.8783 59.3066 31.1543V49.8164C59.3066 55.2404 54.8947 59.6543 49.4707 59.6543H16.1445C10.7205 59.6543 6.30664 55.2404 6.30664 49.8164V16.4902C6.30664 11.0662 10.7205 6.65234 16.1445 6.65234H49.8066C50.0826 6.65234 50.3066 6.42834 50.3066 6.15234C50.3066 5.87634 50.0826 5.65234 49.8066 5.65234H16.1445ZM21.8242 18.6953C19.7372 18.6953 18.2227 20.1578 18.2227 22.1738C18.2227 24.1898 19.7061 25.6523 21.7871 25.6523C23.8741 25.6523 25.3906 24.1901 25.3906 22.1621C25.3406 20.1211 23.8722 18.6953 21.8242 18.6953ZM21.8242 19.6953C23.3452 19.6953 24.3536 20.6748 24.3906 22.1758C24.3916 23.6348 23.3219 24.6543 21.7539 24.6543C20.2649 24.6543 19.2227 23.6348 19.2227 22.1758C19.2227 20.7158 20.2922 19.6953 21.8242 19.6953ZM59.8066 20.6543C59.5306 20.6543 59.3066 20.8773 59.3066 21.1543V23.1543C59.3066 23.4303 59.5306 23.6543 59.8066 23.6543C60.0826 23.6543 60.3066 23.4303 60.3066 23.1543V21.1543C60.3066 20.8783 60.0826 20.6543 59.8066 20.6543ZM59.8066 24.6543C59.5306 24.6543 59.3066 24.8783 59.3066 25.1543V29.1543C59.3066 29.4303 59.5306 29.6543 59.8066 29.6543C60.0826 29.6543 60.3066 29.4303 60.3066 29.1543V25.1543C60.3066 24.8773 60.0826 24.6543 59.8066 24.6543ZM40.5762 27.5313C38.3762 27.5443 36.5927 28.201 35.3047 29.582V28.1523C35.3047 27.8763 35.0807 27.6523 34.8047 27.6523H28.7305C28.5935 27.6523 28.4622 27.7076 28.3672 27.8066C28.2732 27.9056 28.2245 28.0398 28.2305 28.1758C28.3115 29.9248 28.2305 46.9784 28.2305 47.1504C28.2295 47.2844 28.282 47.4119 28.375 47.5059C28.469 47.5999 28.5965 47.6524 28.7285 47.6524H34.8066C35.0826 47.6524 35.3066 47.4284 35.3066 47.1524V36.5391C35.3066 35.9271 35.3654 35.4726 35.4824 35.1856C35.7254 34.5856 36.4816 33.1895 38.2656 33.1895C40.9336 33.1895 41.2227 35.8965 41.2227 37.0645L41.3047 47.1563C41.3067 47.4313 41.5307 47.6524 41.8047 47.6524H47.8047C48.0807 47.6524 48.3047 47.4284 48.3047 47.1524V36.9746C48.3047 33.6446 47.4833 31.1356 45.8633 29.5176C44.5433 28.1996 42.7652 27.5313 40.5762 27.5313ZM18.8066 27.6543C18.5306 27.6543 18.3066 27.8783 18.3066 28.1543V47.1543C18.3066 47.4303 18.5306 47.6543 18.8066 47.6543H24.8066C25.0826 47.6543 25.3066 47.4303 25.3066 47.1543V28.1543C25.3066 27.8783 25.0826 27.6543 24.8066 27.6543H18.8066ZM40.5605 28.5332H40.5762C42.4912 28.5332 44.0332 29.1036 45.1582 30.2266C46.5832 31.6496 47.3066 33.9196 47.3066 36.9746V46.6543H42.3027L42.2227 37.0625C42.2227 34.0575 40.7076 32.1895 38.2676 32.1895C36.6076 32.1895 35.2196 33.1686 34.5566 34.8086C34.3886 35.2206 34.3066 35.7861 34.3066 36.5391V46.6523H29.2324C29.2454 43.9563 29.2952 31.6813 29.2422 28.6543H34.3066V30.957C34.2506 31.098 34.2736 31.2614 34.3496 31.3984C34.4386 31.5554 34.6256 31.6543 34.8066 31.6543C35.0146 31.6543 35.1926 31.4881 35.2676 31.2891C35.9976 30.0891 37.3455 28.5332 40.5605 28.5332ZM19.3066 28.6543H24.3066V46.6543H19.3066V28.6543Z" fill="#2F4858" stroke="#2F4858" stroke-width="2" mask="url(#path-1-inside-1)"/>
</svg>
