<svg width="119" height="121" viewBox="0 0 119 121" fill="none" xmlns="http://www.w3.org/2000/svg">
<path d="M36.6709 21.3617C27.9976 21.3617 20.9409 28.4184 20.9409 37.0917V84.2817C20.9409 92.955 27.9976 100.012 36.6709 100.012H83.8609C92.5342 100.012 99.5909 92.955 99.5909 84.2817V37.0917C99.5909 28.4172 92.5354 21.3617 83.8609 21.3617H36.6709ZM36.6709 23.7817H83.8609C91.1996 23.7817 97.1709 29.753 97.1709 37.0917V84.2817C97.1709 91.6204 91.1996 97.5917 83.8609 97.5917H36.6709C29.3323 97.5917 23.3609 91.6204 23.3609 84.2817V37.0917C23.3609 29.753 29.3323 23.7817 36.6709 23.7817ZM40.1048 27.4093C32.8738 27.4093 26.9909 33.2922 26.9909 40.5232V80.8479C26.9909 88.0788 32.8738 93.9593 40.1048 93.9593H80.4294C87.6604 93.9593 93.5409 88.0788 93.5409 80.8479V58.2667C93.5409 57.9315 93.2699 57.6617 92.9359 57.6617C92.602 57.6617 92.3309 57.9327 92.3309 58.2667V80.8479C92.3309 87.4109 86.9925 92.7517 80.4294 92.7517H40.1048C33.5417 92.7517 28.2009 87.4109 28.2009 80.8479V40.5232C28.2009 33.9601 33.5417 28.6193 40.1048 28.6193H80.8359C81.1699 28.6193 81.4409 28.3483 81.4409 28.0143C81.4409 27.6804 81.1699 27.4093 80.8359 27.4093H40.1048ZM46.9772 43.1913C44.4519 43.1913 42.6193 44.961 42.6193 47.4003C42.6193 49.8397 44.4143 51.6093 46.9323 51.6093C49.4576 51.6093 51.2925 49.84 51.2925 47.3862C51.232 44.9165 49.4553 43.1913 46.9772 43.1913ZM46.9772 44.4013C48.8176 44.4013 50.0378 45.5865 50.0825 47.4027C50.0837 49.1681 48.7894 50.4017 46.8921 50.4017C45.0904 50.4017 43.8293 49.1681 43.8293 47.4027C43.8293 45.6361 45.1235 44.4013 46.9772 44.4013ZM92.9359 45.5617C92.602 45.5617 92.3309 45.8315 92.3309 46.1667V48.5867C92.3309 48.9207 92.602 49.1917 92.9359 49.1917C93.2699 49.1917 93.5409 48.9207 93.5409 48.5867V46.1667C93.5409 45.8327 93.2699 45.5617 92.9359 45.5617ZM92.9359 50.4017C92.602 50.4017 92.3309 50.6727 92.3309 51.0067V55.8467C92.3309 56.1807 92.602 56.4517 92.9359 56.4517C93.2699 56.4517 93.5409 56.1807 93.5409 55.8467V51.0067C93.5409 50.6715 93.2699 50.4017 92.9359 50.4017ZM69.6671 53.8828C67.0051 53.8985 64.847 54.6932 63.2886 56.3643V54.6343C63.2886 54.3004 63.0175 54.0293 62.6836 54.0293H55.3338C55.168 54.0293 55.0091 54.0962 54.8942 54.216C54.7804 54.3358 54.7215 54.4981 54.7288 54.6627C54.8268 56.779 54.7288 77.4139 54.7288 77.622C54.7275 77.7841 54.7911 77.9384 54.9036 78.0521C55.0174 78.1658 55.1717 78.2293 55.3314 78.2293H62.6859C63.0199 78.2293 63.2909 77.9583 63.2909 77.6243V64.7823C63.2909 64.0417 63.362 63.4918 63.5036 63.1445C63.7976 62.4185 64.7127 60.7292 66.8713 60.7292C70.0996 60.7292 70.4493 64.0047 70.4493 65.418L70.5486 77.6291C70.551 77.9618 70.822 78.2293 71.1536 78.2293H78.4136C78.7475 78.2293 79.0186 77.9583 79.0186 77.6243V65.3093C79.0186 61.28 78.0247 58.244 76.0645 56.2863C74.4673 54.6915 72.3157 53.8828 69.6671 53.8828ZM43.3259 54.0317C42.992 54.0317 42.7209 54.3027 42.7209 54.6367V77.6267C42.7209 77.9607 42.992 78.2317 43.3259 78.2317H50.5859C50.9199 78.2317 51.1909 77.9607 51.1909 77.6267V54.6367C51.1909 54.3027 50.9199 54.0317 50.5859 54.0317H43.3259ZM69.6481 55.0952H69.6671C71.9842 55.0952 73.8501 55.7853 75.2113 57.1441C76.9356 58.866 77.8109 61.6127 77.8109 65.3093V77.0217H71.7562L71.6593 65.4156C71.6593 61.7796 69.8261 59.5192 66.8737 59.5192C64.8651 59.5192 63.1856 60.704 62.3834 62.6884C62.1801 63.1869 62.0809 63.8711 62.0809 64.7823V77.0193H55.9411C55.9568 73.7572 56.0171 58.9044 55.9529 55.2417H62.0809V58.028C62.0132 58.1986 62.041 58.3963 62.1329 58.5621C62.2406 58.7521 62.4669 58.8717 62.6859 58.8717C62.9376 58.8717 63.1529 58.6706 63.2437 58.4298C64.127 56.9778 65.758 55.0952 69.6481 55.0952ZM43.9309 55.2417H49.9809V77.0217H43.9309V55.2417Z" fill="white"/>
</svg>
