<svg width="207" height="126" viewBox="0 0 207 126" fill="none" xmlns="http://www.w3.org/2000/svg">
<path d="M5.96046e-08 0.399994H22V54H73V0.399994H95V124H73V74.4H22V124H5.96046e-08V0.399994ZM159.647 125.6C144.98 125.6 134.38 121.533 127.847 113.4C121.447 105.133 118.247 93.4 118.247 78.2C118.247 62.6 122.114 50.3333 129.847 41.4C137.714 32.3333 149.38 27.8 164.847 27.8C192.447 27.8 206.247 44.1333 206.247 76.8C206.247 109.333 190.714 125.6 159.647 125.6ZM163.847 107.4C170.514 107.4 176.247 106.467 181.047 104.6C183.714 98.6 185.047 90.2 185.047 79.4C185.047 71.2667 184.38 64.8667 183.047 60.2C181.847 55.5333 179.447 52.1333 175.847 50C172.38 47.7333 167.314 46.6 160.647 46.6C153.98 46.6 148.247 47.5333 143.447 49.4C140.78 55.5333 139.447 64.4 139.447 76C139.447 84 140.114 90.2 141.447 94.6C142.78 99 145.18 102.267 148.647 104.4C152.114 106.4 157.18 107.4 163.847 107.4Z" fill="white"/>
</svg>
