<svg width="197" height="137" viewBox="0 0 197 137" fill="none" xmlns="http://www.w3.org/2000/svg">
<path d="M21.4 136.4C19 135.733 16.1333 134.333 12.8 132.2C9.6 129.933 6.8 127.4 4.4 124.6C2 121.8 0.800001 119.267 0.800001 117V0.799999H22V109.6C22 112.933 22.3333 115.467 23 117.2H25.6L36.8 111.4L44.8 122C42.5333 125.733 39.1333 129.067 34.6 132C30.0667 134.8 25.6667 136.267 21.4 136.4ZM82.7703 136.6C73.437 136.6 66.437 134.4 61.7703 130C57.1036 125.6 54.7703 119.4 54.7703 111.4C54.7703 101 58.7036 93.3333 66.5703 88.4C74.5703 83.4667 85.5036 81 99.3703 81C103.104 81 107.17 81.2 111.57 81.6V70.6C111.57 64.8667 110.37 61 107.97 59C105.57 56.8667 101.304 55.8 95.1703 55.8C91.5703 55.8 87.637 56.0667 83.3703 56.6L81.3703 69.6H64.3703C62.637 64.6667 61.7703 59.6 61.7703 54.4V49.4C66.5703 46.6 72.3036 44.2667 78.9703 42.4C85.637 40.4 92.437 39.4 99.3703 39.4C110.17 39.4 118.504 41.9333 124.37 47C130.237 52.0667 133.17 59.3333 133.17 68.8V135H114.57L113.37 121.8H111.77C104.57 131.667 94.9036 136.6 82.7703 136.6ZM88.1703 119.4C93.1036 119.4 97.5703 118.4 101.57 116.4C105.704 114.4 109.17 111.467 111.97 107.6V95.8C106.904 94.8667 101.37 94.4 95.3703 94.4C88.5703 94.4 83.3036 94.9333 79.5703 96C78.637 98.2667 77.9703 100.333 77.5703 102.2C77.3036 104.067 77.1703 106.2 77.1703 108.6C77.1703 112.467 78.1036 115.267 79.9703 117C81.837 118.6 84.5703 119.4 88.1703 119.4Z" fill="white"/>
<path d="M197 115C197 126.046 188.046 135 177 135C165.954 135 157 126.046 157 115C157 103.954 165.954 95 177 95C188.046 95 197 103.954 197 115Z" fill="#2F4858"/>
</svg>
