<svg width="126" height="45" viewBox="0 0 126 45" fill="none" xmlns="http://www.w3.org/2000/svg">
<rect x="14.5" y="8.5" width="8" height="63" rx="1" transform="rotate(-90 14.5 8.5)" fill="#303030"/>
<rect x="0.5" y="26.5" width="8" height="77" rx="1" transform="rotate(-90 0.5 26.5)" fill="#303030"/>
<rect x="29.5" y="44.5" width="8" height="48" rx="1" transform="rotate(-90 29.5 44.5)" fill="#303030"/>
<path d="M114.994 43.004V40.641L120.74 38.516V38.397L114.994 36.255V33.909L125.5 33.501V35.388L120.213 35.575L117.561 35.558L117.527 35.694L122.627 37.734V39.179L117.527 41.219L117.561 41.355L120.213 41.321L125.5 41.525V43.412L114.994 43.004ZM125.653 27.2465C125.653 28.5045 125.511 29.4791 125.228 30.1705C124.945 30.8505 124.446 31.1905 123.732 31.1905H114.994V24.0335H116.711V29.3375H119.465V24.6795H121.097V29.3375H123.783C123.896 28.6575 123.953 27.9435 123.953 27.1955C123.953 26.0735 123.845 25.0818 123.63 24.2205L125.279 23.8975C125.528 24.7475 125.653 25.8638 125.653 27.2465ZM114.994 21.7608V19.4658L123.12 15.0968L123.086 14.9608L120.383 15.1478H114.994V13.2608H125.5V15.5558L117.374 19.9418L117.408 20.0778L120.128 19.8908H125.5V21.7608H114.994ZM125.653 6.90955C125.653 8.24688 125.364 9.24421 124.786 9.90155C124.197 10.5589 123.347 10.8875 122.236 10.8875H114.994V9.01755H121.862C122.644 9.01755 123.188 8.85321 123.494 8.52455C123.789 8.18455 123.936 7.60655 123.936 6.79055C123.936 5.82721 123.823 5.05088 123.596 4.46155H114.994V2.59155H123.273C124.112 2.59155 124.718 2.98255 125.092 3.76455C125.466 4.53521 125.653 5.58355 125.653 6.90955Z" fill="black"/>
</svg>
