<svg width="43" height="38" viewBox="0 0 43 38" fill="none" xmlns="http://www.w3.org/2000/svg">
<path d="M12.2711 11.6171H30.7061C31.189 11.6171 31.5807 11.2709 31.5807 10.8442C31.5807 10.4174 31.189 10.0713 30.7061 10.0713H12.2711C11.7881 10.0713 11.3965 10.4174 11.3965 10.8442C11.3965 11.2709 11.7881 11.6171 12.2711 11.6171Z" fill="#2F4858"/>
<path d="M12.2711 19.7627H30.7061C31.189 19.7627 31.5807 19.4166 31.5807 18.9898C31.5807 18.5631 31.189 18.2169 30.7061 18.2169H12.2711C11.7881 18.2169 11.3965 18.5631 11.3965 18.9898C11.3965 19.4166 11.7881 19.7627 12.2711 19.7627Z" fill="#2F4858"/>
<path d="M31.5807 27.1356C31.5807 26.7089 31.189 26.3627 30.7061 26.3627H12.2711C11.7881 26.3627 11.3965 26.7089 11.3965 27.1356C11.3965 27.5624 11.7881 27.9085 12.2711 27.9085H30.7061C31.189 27.9085 31.5807 27.5624 31.5807 27.1356Z" fill="#2F4858"/>
</svg>
